<svg width="198" height="119" viewBox="0 0 198 119" fill="none" xmlns="http://www.w3.org/2000/svg">
<path d="M23.6934 25L26.7534 9.06L32.2334 21.72L37.7334 9.06L40.7934 25H39.0734L37.1334 14.8H37.0934L32.2334 25.62L27.3934 14.8H27.3534L25.4134 25H23.6934ZM46.6231 16.82C44.7631 16.82 43.5631 18.44 43.5631 20.2C43.5631 22.04 44.6431 23.78 46.6431 23.78C48.7031 23.78 49.7831 22.12 49.7831 20.22C49.7831 18.34 48.6031 16.82 46.6231 16.82ZM51.3031 15.6V25H49.7031V23.7H49.6631C48.8431 24.74 47.7431 25.26 46.4231 25.26C43.6631 25.26 41.9231 22.92 41.9231 20.32C41.9231 17.64 43.6231 15.34 46.4431 15.34C47.7231 15.34 48.8831 15.94 49.6631 16.94H49.7031V15.6H51.3031ZM55.7861 15.6V16.62H55.8261C56.3861 15.88 56.8661 15.34 57.9061 15.34C58.4461 15.34 58.8861 15.52 59.3461 15.78L58.5861 17.24C58.2661 17.02 58.0461 16.82 57.6261 16.82C55.8661 16.82 55.7861 19.08 55.7861 20.3V25H54.1861V15.6H55.7861ZM67.9453 16.28V18.4H67.9053C67.1653 17.46 66.2453 16.82 64.9853 16.82C63.0453 16.82 61.6653 18.42 61.6653 20.3C61.6653 22.16 62.9453 23.78 64.9053 23.78C66.2453 23.78 67.1853 23.18 67.9653 22.16H68.0053V24.3C67.0853 24.92 66.1453 25.26 65.0253 25.26C62.1853 25.26 60.0253 23.14 60.0253 20.3C60.0253 17.5 62.2853 15.34 65.0453 15.34C66.0653 15.34 67.1053 15.68 67.9453 16.28ZM74.577 25.26C71.837 25.26 69.637 23.08 69.637 20.32C69.637 17.56 71.817 15.34 74.577 15.34C77.337 15.34 79.517 17.56 79.517 20.32C79.517 23.08 77.317 25.26 74.577 25.26ZM74.577 16.82C72.597 16.82 71.237 18.4 71.237 20.3C71.237 22.22 72.597 23.78 74.577 23.78C76.557 23.78 77.917 22.22 77.917 20.3C77.917 18.4 76.557 16.82 74.577 16.82ZM95.5998 17.42H101.88C101.92 19.46 101.7 21.14 100.32 22.74C98.9398 24.34 96.8398 25.26 94.7398 25.26C90.4998 25.26 86.9798 21.74 86.9798 17.5C86.9798 13.18 90.4998 9.66 94.8398 9.66C97.4798 9.66 99.6198 10.84 101.22 12.92L99.9998 14.06C98.7398 12.28 97.0398 11.22 94.8198 11.22C91.3798 11.22 88.6598 14.12 88.6598 17.52C88.6598 19.12 89.2998 20.64 90.4198 21.78C91.5198 22.88 93.1198 23.7 94.6998 23.7C97.3198 23.7 100.08 21.78 100.08 18.98H95.5998V17.42ZM105.826 23.02C106.446 23.02 106.946 23.52 106.946 24.12C106.946 24.74 106.446 25.26 105.826 25.26C105.206 25.26 104.706 24.74 104.706 24.12C104.706 23.52 105.206 23.02 105.826 23.02ZM115.471 25L118.531 9.06L124.011 21.72L129.511 9.06L132.571 25H130.851L128.911 14.8H128.871L124.011 25.62L119.171 14.8H119.131L117.191 25H115.471ZM135.98 15.6V20.84C135.98 22.42 136.16 23.78 138.1 23.78C140.04 23.78 140.22 22.42 140.22 20.84V15.6H141.82V21.02C141.82 23.52 140.88 25.26 138.1 25.26C135.32 25.26 134.38 23.52 134.38 21.02V15.6H135.98ZM146.255 15.6V16.62H146.295C146.855 15.88 147.335 15.34 148.375 15.34C148.915 15.34 149.355 15.52 149.815 15.78L149.055 17.24C148.735 17.02 148.515 16.82 148.095 16.82C146.335 16.82 146.255 19.08 146.255 20.3V25H144.655V15.6H146.255ZM158.414 16.28V18.4H158.374C157.634 17.46 156.714 16.82 155.454 16.82C153.514 16.82 152.134 18.42 152.134 20.3C152.134 22.16 153.414 23.78 155.374 23.78C156.714 23.78 157.654 23.18 158.434 22.16H158.474V24.3C157.554 24.92 156.614 25.26 155.494 25.26C152.654 25.26 150.494 23.14 150.494 20.3C150.494 17.5 152.754 15.34 155.514 15.34C156.534 15.34 157.574 15.68 158.414 16.28ZM162.846 15.6V25H161.246V15.6H162.846ZM162.046 10.92C162.666 10.92 163.186 11.44 163.186 12.06C163.186 12.7 162.666 13.2 162.046 13.2C161.426 13.2 160.906 12.7 160.906 12.06C160.906 11.44 161.426 10.92 162.046 10.92ZM170.08 16.82C168.22 16.82 167.02 18.44 167.02 20.2C167.02 22.04 168.1 23.78 170.1 23.78C172.16 23.78 173.24 22.12 173.24 20.22C173.24 18.34 172.06 16.82 170.08 16.82ZM174.76 15.6V25H173.16V23.7H173.12C172.3 24.74 171.2 25.26 169.88 25.26C167.12 25.26 165.38 22.92 165.38 20.32C165.38 17.64 167.08 15.34 169.9 15.34C171.18 15.34 172.34 15.94 173.12 16.94H173.16V15.6H174.76ZM179.323 15.6V16.74H179.363C180.023 15.84 180.883 15.34 182.043 15.34C184.643 15.34 185.243 17.22 185.243 19.42V25H183.643V19.7C183.643 18.18 183.523 16.82 181.663 16.82C179.463 16.82 179.323 18.86 179.323 20.54V25H177.723V15.6H179.323ZM192.39 25.26C189.65 25.26 187.45 23.08 187.45 20.32C187.45 17.56 189.63 15.34 192.39 15.34C195.15 15.34 197.33 17.56 197.33 20.32C197.33 23.08 195.13 25.26 192.39 25.26ZM192.39 16.82C190.41 16.82 189.05 18.4 189.05 20.3C189.05 22.22 190.41 23.78 192.39 23.78C194.37 23.78 195.73 22.22 195.73 20.3C195.73 18.4 194.37 16.82 192.39 16.82ZM192.059 56L188.639 51.6H190.599L193.059 54.8L195.519 51.6H197.519L194.079 56L197.979 61H196.039L193.059 57.18L190.059 61H188.059L192.059 56Z" fill="white"/>
<g clip-path="url(#clip0_37_183)">
<path d="M23.389 77.9999C23.51 78.1205 23.5906 78.3617 23.7116 78.4019C27.2603 78.5627 32.543 81.095 34.8415 83.5872C36.0916 84.994 37.3821 86.3205 38.4709 87.8881C39.5193 89.4558 40.1646 91.144 40.6485 92.8323C41.2937 95.0431 41.8582 97.3342 41.5356 99.7058C41.213 101.876 40.6888 104.007 40.0033 106.097C38.7935 109.674 36.3336 112.327 33.5511 114.659C31.4138 116.468 28.833 117.633 26.0102 118.276C25.2037 118.477 24.3568 118.518 23.5906 118.678C23.51 118.678 23.51 118.879 23.4293 119C21.6953 119 19.921 119 18.187 119C18.0257 118.879 17.824 118.598 17.6627 118.598C15.0819 118.678 13.0253 117.191 10.6864 116.548C8.02485 114.659 5.52464 112.649 3.62933 109.916C1.77434 107.343 0.68554 104.409 0.403259 101.233C0.403259 101.113 0.161303 101.032 0 100.912C0 99.3038 0 97.696 0 96.0881C0.120978 96.048 0.322607 95.9676 0.322607 95.9676C0.201629 94.4401 0.806517 93.1136 1.20978 91.7068C1.65336 90.0989 3.38737 86.9636 4.43584 85.8381C6.97637 83.145 9.55723 80.6127 13.2269 79.447C14.6786 79.0048 16.0094 78.2411 17.6224 78.3617C17.7837 78.3617 17.9853 78.1205 18.1466 77.9597C19.8806 77.9999 21.655 77.9999 23.389 77.9999ZM24.9617 101.515C27.6232 100.068 28.9136 97.8166 29.2766 94.9225C27.9055 94.9225 26.5344 94.9225 25.2037 94.9225C24.1955 96.7715 23.1874 98.5803 20.6872 98.4999C18.3079 98.4195 17.1385 96.9725 16.4126 94.8823C15.7271 94.8823 14.9609 94.8823 14.235 94.8823C13.5092 94.8823 12.8236 94.8823 12.0574 94.8823C13.3479 99.8666 14.477 99.9068 16.6143 101.555C13.9931 103.323 12.3397 105.695 12.1381 108.911C13.6705 108.911 15.0819 108.911 16.453 108.911C16.9772 106.419 18.3483 105.052 20.1226 104.931C21.4937 104.811 22.7438 105.172 23.7116 105.936C24.5988 106.62 24.8407 107.825 25.1633 108.951C25.8892 108.951 26.6151 108.991 27.3409 108.951C28.0265 108.911 28.7523 109.152 29.4379 108.83C29.2766 108.227 29.1556 107.745 29.0346 107.263C28.6717 105.896 28.3088 104.57 27.1393 103.645C26.3731 103.002 25.6876 102.238 24.9617 101.515ZM25.0424 94.0783C26.2925 94.0783 27.4619 94.1185 28.591 94.0381C28.954 93.998 29.5185 94.0381 29.1556 93.0734C28.712 91.9881 28.6314 90.8225 27.8652 89.7774C27.099 88.7725 26.3731 87.8881 25.2843 87.245C23.9939 86.4813 22.7035 85.8381 21.1308 86.0391C20.2033 86.1597 19.1145 85.798 18.3483 86.1195C15.3642 87.4862 12.7833 89.295 12.501 92.993C11.8558 93.7568 12.38 94.0381 13.0253 94.0783C14.1544 94.1587 15.2835 94.1185 16.4126 94.1185C16.9369 91.5862 18.7919 90.0185 20.9291 90.1391C23.147 90.2195 24.8004 91.8676 25.0424 94.0783Z" fill="white"/>
<path d="M197.999 105.333C197.515 105.333 197.072 105.333 196.427 105.333C196.427 104.65 196.386 103.926 196.386 103.203C196.386 101.274 196.386 99.3039 196.386 97.3745C196.386 96.4902 196.104 95.4853 195.257 95.3647C194.572 95.2441 193.765 94.199 192.959 95.2441C191.104 95.8872 190.7 96.3696 190.7 98.2588C190.7 100.59 190.7 102.922 190.7 105.293C190.136 105.293 189.692 105.293 189.168 105.293C189.168 101.475 189.168 97.6157 189.168 93.5961C189.692 93.9176 190.539 93.1539 190.7 94.2794C190.7 94.3196 191.023 94.3196 191.104 94.2794C191.829 93.5559 192.999 93.998 193.725 93.3147C194.451 93.8774 195.539 93.3951 196.185 94.1588C196.548 94.5608 196.87 95.0029 197.314 95.2843C197.838 95.6059 197.072 96.45 197.919 96.5304C197.999 99.4245 197.999 102.399 197.999 105.333Z" fill="white"/>
<path d="M107.67 96.4098C106.703 97.4951 105.815 99.1834 105.533 100.47C104.807 100.47 104.122 100.47 103.436 100.47C102.751 99.1432 102.105 97.8167 101.259 96.1285C101.259 99.4245 101.259 102.319 101.259 105.293C100.129 105.293 99.1616 105.293 97.9922 105.293C97.9922 103.886 97.9922 102.52 97.9922 101.113C97.9922 97.8167 97.9922 94.5608 97.9922 91.2647C97.9922 89.2147 98.0325 89.2549 100.129 89.2147C101.097 89.1745 101.863 89.6569 101.944 90.3804C102.105 91.5863 102.993 92.35 103.275 93.4755C103.436 94.1187 103.92 94.6814 104.323 95.4049C105.372 93.3549 106.38 91.3853 107.428 89.2951C108.316 89.2951 109.324 89.2951 110.372 89.2951C110.372 94.601 110.372 99.9471 110.372 105.293C109.485 105.293 108.638 105.293 107.63 105.293C107.67 102.359 107.67 99.4647 107.67 96.4098Z" fill="white"/>
<path d="M50.8109 97.4951C50.8109 96.2088 50.8109 94.9627 50.8109 93.6765C50.8512 91.1843 52.7869 89.2951 55.3274 89.2549C56.6985 89.2147 57.9889 89.2549 59.239 90.0186C60.5294 90.7823 61.1343 91.9882 61.215 93.2745C61.4166 95.9274 61.3763 98.6206 61.2553 101.274C61.1343 103.605 59.36 105.052 57.5856 105.374C56.6178 105.534 55.65 106.097 54.6822 105.374C52.9885 105.454 52.182 104.168 51.2142 103.123C50.8915 102.761 50.8109 102.077 50.8109 101.515C50.7706 100.148 50.8109 98.8216 50.8109 97.4951ZM54.037 97.4147C54.037 98.4196 54.037 99.4245 54.037 100.429C54.037 101.675 54.3192 102.077 55.3677 102.439C56.6581 102.881 58.0695 101.997 58.0695 100.671C58.0695 98.5402 58.0292 96.4098 58.1099 94.2794C58.1502 93.4755 57.7066 93.0333 57.1824 92.6716C56.8598 92.4706 56.2952 92.5108 55.8516 92.5108C54.6822 92.5108 54.037 93.1137 54.037 94.2794C54.037 95.2843 54.037 96.3696 54.037 97.4147Z" fill="white"/>
<path d="M88.8369 89.2549C89.7644 89.2549 90.6516 89.2549 91.4984 89.2549C92.2243 89.2549 92.2646 89.2549 92.5469 90.0588C92.9098 91.1843 93.3534 92.3098 93.5551 93.4353C93.918 95.2843 94.6035 97.0529 94.9665 98.8617C95.3697 100.831 96.1762 102.68 96.4182 104.69C96.4182 104.851 96.6601 104.972 96.9828 105.293C96.0149 105.293 95.2487 105.293 94.4422 105.293C93.5551 105.253 93.3534 105.092 93.1921 104.208C93.1518 103.886 93.0711 103.565 92.9905 103.283C92.6679 102.52 92.6679 102.479 91.942 102.479C90.8129 102.479 89.6838 102.479 88.474 102.479C88.3127 103.243 88.1917 104.007 87.9094 104.69C87.7885 104.972 87.3045 105.253 86.9819 105.293C86.1351 105.374 85.2479 105.333 84.4414 105.333C84.9656 103.444 85.4899 101.716 85.9335 99.9068C86.3771 98.098 86.9416 96.2892 87.3852 94.4804C87.6675 93.2745 87.8288 92.0284 88.353 90.8627C88.5143 90.3402 88.6353 89.8176 88.8369 89.2549ZM89.2402 99.2235C90.087 99.2235 90.9742 99.2235 91.942 99.2235C91.4581 97.6157 91.0145 96.048 90.5306 94.4C90.087 96.0882 89.6434 97.6559 89.2402 99.2235Z" fill="white"/>
<path d="M74.3219 105.333C73.4751 105.333 72.8702 105.333 72.2653 105.333C70.491 105.333 70.491 105.333 69.7651 103.846C69.3215 102.881 68.8779 101.957 68.3537 100.871C67.3052 102.238 66.7003 103.806 65.9745 105.293C64.8857 105.293 63.7565 105.293 62.4258 105.293C62.6274 104.891 62.7887 104.57 62.9097 104.288C63.7162 102.56 64.5227 100.791 65.3696 99.0627C65.5712 98.6205 65.8535 98.1783 66.2164 97.8166C66.6197 97.4548 66.2567 97.3342 66.1358 97.093C65.047 94.8019 64.1195 92.3901 62.5871 90.3401C62.4258 90.1391 62.5064 89.7372 62.4661 89.3352C63.6759 89.3352 64.805 89.3352 65.9745 89.3352C66.7406 90.8627 67.5472 92.4705 68.3537 94.1185C69.1199 92.5509 69.8861 90.9832 70.7329 89.3352C71.8217 89.3352 72.9912 89.3352 74.3622 89.3352C73.596 90.7823 72.9508 92.1087 72.2653 93.395C71.6201 94.6009 70.9345 95.8068 70.2893 96.9725C70.0474 97.3744 70.37 97.5352 70.491 97.8166C71.6201 100.108 72.6282 102.439 74.08 104.57C74.1606 104.73 74.2009 104.931 74.3219 105.333Z" fill="white"/>
<path d="M85.0462 89.3351C85.0462 90.3802 85.0462 91.3851 85.0462 92.4302C83.2315 92.4302 81.4169 92.4302 79.5216 92.4302C79.5216 93.5155 79.5216 94.5606 79.5216 95.6861C80.6507 95.6861 81.7798 95.6861 82.9089 95.6861C84.0381 95.6861 84.2397 95.9273 84.2397 97.093C84.2397 97.6155 84.2397 98.1783 84.2397 98.8214C82.667 98.8214 81.0943 98.8214 79.4409 98.8214C79.4409 101.032 79.4409 103.082 79.4409 105.213C78.3521 105.213 77.3036 105.213 76.2148 105.213C76.2148 99.9067 76.2148 94.641 76.2148 89.2949C79.1586 89.3351 82.0218 89.3351 85.0462 89.3351Z" fill="white"/>
<path d="M175.013 105.293C174.408 105.293 173.965 105.293 173.4 105.293C173.4 102.439 173.4 99.6656 173.4 96.8519C173.4 96.1685 173.36 95.646 172.594 95.244C171.828 94.8421 171.223 94.8019 170.497 95.2842C169.731 95.7666 169.287 96.3293 169.327 97.3342C169.408 99.947 169.368 102.56 169.368 105.253C168.843 105.253 168.36 105.253 167.755 105.253C167.755 102.72 167.714 100.188 167.755 97.6558C167.755 96.5705 167.351 95.7666 166.545 95.1636C166.303 94.9626 165.779 94.8823 165.496 94.9626C164.246 95.3244 163.319 96.6509 163.319 98.0176C163.319 99.2234 163.319 100.429 163.319 101.635C163.319 102.841 163.319 104.007 163.319 105.293C162.795 105.293 162.351 105.293 161.827 105.293C161.867 105.333 161.746 105.253 161.746 105.213C161.746 101.434 161.746 97.6156 161.746 93.6362C162.351 93.8774 163.198 93.1538 163.399 94.3999C163.48 94.3999 163.641 94.3999 163.682 94.3195C164.125 93.194 165.496 94.1185 166.061 93.2744C166.908 93.8372 168.198 93.5558 168.601 95.2842C169.287 93.6362 170.577 93.6362 171.586 93.3548C172.231 93.1538 173.199 93.596 173.844 94.0381C174.57 94.4803 174.973 95.244 174.973 96.1685C175.013 99.143 175.013 102.158 175.013 105.293Z" fill="white"/>
<path d="M145.173 99.4245C145.173 100.47 145.133 101.153 145.173 101.796C145.213 102.198 145.334 102.721 145.576 103.002C146.504 104.047 147.834 103.725 149.004 103.685C149.77 103.645 150.254 103.042 150.375 102.278C150.496 101.434 151.02 101.233 151.786 101.274C152.512 102.439 151.867 103.444 151.141 104.168C150.536 104.771 149.77 105.574 148.641 105.293C148.278 105.213 147.834 105.293 147.431 105.293C145.133 105.293 143.52 103.725 143.52 101.474C143.52 100.068 143.52 98.6608 143.52 97.2539C143.52 95.4853 144.931 94.1588 146.584 93.5559C147.754 93.1137 148.681 93.5961 149.689 93.7167C150.335 93.797 151.141 94.4402 151.504 95.0431C152.23 96.3294 152.633 97.7765 152.391 99.2637C152.351 99.5853 151.948 100.027 151.665 100.068C149.81 100.108 147.915 100.068 146.06 99.9872C145.899 99.9872 145.697 99.7461 145.173 99.4245ZM145.173 98.5C146.504 98.5 147.754 98.5 149.004 98.5C149.286 98.5 149.528 98.5 149.81 98.5C150.617 98.4196 150.778 98.0578 150.617 97.2539C150.335 96.0882 149.73 95.5657 148.56 95.0833C147.471 94.6412 146.867 95.2843 146.1 95.4451C145.495 95.5657 145.254 96.4902 145.213 97.2137C145.133 97.6157 145.173 98.0176 145.173 98.5Z" fill="white"/>
<path d="M177.838 99.5048C177.838 98.7813 177.879 98.0176 177.838 97.294C177.758 96.3293 178.161 95.5254 178.846 94.8823C179.451 94.3195 179.855 93.395 180.943 93.6764C181.992 92.7519 183.04 93.6362 184.008 93.7568C184.734 93.8372 185.581 94.3999 185.944 95.445C186.468 96.8519 186.71 97.1734 186.71 98.3391C186.71 99.0225 186.629 99.7058 186.71 100.349C186.831 101.273 186.508 102.158 186.266 103.002C185.783 104.57 184.613 105.333 182.96 105.333C182.476 105.333 182.032 105.333 181.548 105.333C179.492 105.293 177.879 103.725 177.838 101.716C177.838 100.992 177.838 100.228 177.838 99.5048ZM179.451 99.5048C179.451 99.8264 179.492 100.188 179.451 100.51C179.209 103.404 180.5 103.806 182.637 103.766C183.766 103.766 184.169 103.404 184.694 102.198C185.379 100.671 185.178 99.0627 184.976 97.5754C184.855 96.4901 184.331 95.1636 182.718 95.2038C181.79 94.3597 181.064 95.4048 180.258 95.5656C179.774 95.6862 179.371 96.5705 179.371 97.3342C179.451 98.0176 179.451 98.7813 179.451 99.5048Z" fill="white"/>
<path d="M124.688 93.596C125.252 93.9176 126.099 93.1538 126.26 94.3195C126.422 94.3195 126.623 94.3195 126.663 94.2391C127.228 93.2744 128.438 93.9979 129.083 93.2744C130.011 93.596 131.019 93.8372 131.865 94.3195C132.833 94.8823 133.035 96.0077 133.035 97.0126C133.116 99.746 133.075 102.479 133.075 105.253C132.551 105.253 132.107 105.253 131.462 105.253C131.462 103.846 131.462 102.399 131.462 100.952C131.462 99.746 131.382 98.5401 131.503 97.3342C131.583 96.3695 131.22 95.7264 130.494 95.3646C129.769 95.0028 129.043 94.6813 127.994 95.1636C126.704 95.8068 126.18 96.4901 126.22 97.8568C126.26 100.309 126.22 102.761 126.22 105.293C125.655 105.293 125.212 105.293 124.688 105.293C124.688 101.474 124.688 97.696 124.688 93.596Z" fill="white"/>
<path d="M137.108 95.2841C136.382 95.2841 135.817 95.2841 135.172 95.2841C135.172 94.7616 135.172 94.3194 135.172 93.7165C135.777 93.7165 136.382 93.7165 137.108 93.7165C137.108 92.3096 137.108 91.0635 137.108 89.7371C137.672 89.7371 138.156 89.7371 138.761 89.7371C138.761 91.0233 138.761 92.2694 138.761 93.5959C139.688 93.5959 140.535 93.5959 141.543 93.5959C141.584 94.1586 141.584 94.641 141.624 95.2439C140.697 95.2439 139.809 95.2439 138.801 95.2439C138.801 97.6155 138.801 99.9469 138.801 102.278C138.801 102.921 139.527 103.685 140.132 103.725C140.576 103.765 141.059 103.725 141.543 103.725C141.543 104.248 141.543 104.69 141.543 105.333C141.14 105.333 140.697 105.333 140.253 105.333C139.527 105.333 138.842 105.414 138.277 104.69C137.712 103.966 137.148 103.323 137.148 102.318C137.108 100.027 137.108 97.7763 137.108 95.2841Z" fill="white"/>
<path d="M121.703 105.293C121.179 105.293 120.735 105.293 120.211 105.293C120.211 100.148 120.211 95.0028 120.211 89.7371C120.614 89.6969 121.098 89.6969 121.703 89.6567C121.703 94.842 121.703 99.9871 121.703 105.293Z" fill="white"/>
<path d="M156.465 105.293C155.9 105.293 155.456 105.293 154.852 105.293C154.852 103.364 154.852 101.434 154.852 99.5049C154.852 97.5755 154.852 95.6461 154.852 93.5559C155.497 93.9177 156.303 93.1539 156.465 94.2794C156.666 94.2392 156.868 94.199 157.029 94.1187C157.876 93.7569 158.683 93.4755 159.65 93.7971C159.65 94.2794 159.65 94.7216 159.65 95.2039C158.884 95.5255 157.957 95.003 157.271 95.8471C156.747 96.4902 156.424 97.0932 156.424 97.9373C156.505 100.309 156.465 102.721 156.465 105.293Z" fill="white"/>
<path d="M184.37 88.5716C183.846 89.5363 183.483 90.3402 182.999 91.1441C182.596 91.8275 182.032 92.0285 181.023 91.9079C181.467 90.9432 181.83 89.9785 182.314 89.0539C182.515 88.5716 182.999 88.4912 184.37 88.5716Z" fill="white"/>
</g>
<defs>
<clipPath id="clip0_37_183">
<rect width="198" height="41" fill="white" transform="translate(0 78)"/>
</clipPath>
</defs>
</svg>
