<svg width="42" height="42" viewBox="0 0 42 42" fill="none" xmlns="http://www.w3.org/2000/svg">
<path d="M23.389 0.0401993C23.51 0.160799 23.5906 0.402 23.7116 0.4422C27.2603 0.603 32.543 3.13529 34.8415 5.62749C36.0916 7.03429 37.3821 8.3608 38.4709 9.9284C39.5193 11.4961 40.1646 13.1843 40.6485 14.8726C41.2937 17.0834 41.8582 19.3745 41.5356 21.7461C41.213 23.9163 40.6888 26.0473 40.0033 28.1373C38.7935 31.7143 36.3336 34.3673 33.5511 36.6993C31.4138 38.5083 28.833 39.6733 26.0102 40.3163C25.2037 40.5173 24.3568 40.5583 23.5906 40.7183C23.51 40.7183 23.51 40.9193 23.4293 41.0403C21.6953 41.0403 19.921 41.0403 18.187 41.0403C18.0257 40.9193 17.824 40.6383 17.6627 40.6383C15.0819 40.7183 13.0253 39.2313 10.6864 38.5883C8.02485 36.6993 5.52464 34.6893 3.62933 31.9563C1.77434 29.3833 0.68554 26.4493 0.403259 23.2733C0.403259 23.1533 0.161303 23.0723 0 22.9523C0 21.3441 0 19.7363 0 18.1284C0.120978 18.0883 0.322607 18.0079 0.322607 18.0079C0.201629 16.4804 0.806517 15.1539 1.20978 13.7471C1.65336 12.1392 3.38737 9.0039 4.43584 7.8784C6.97637 5.1853 9.55723 2.653 13.2269 1.4873C14.6786 1.0451 16.0094 0.2814 17.6224 0.402C17.7837 0.402 17.9853 0.1608 18.1466 0C19.8806 0.0402 21.655 0.0401993 23.389 0.0401993ZM24.9617 23.5553C27.6232 22.1083 28.9136 19.8569 29.2766 16.9628C27.9055 16.9628 26.5344 16.9628 25.2037 16.9628C24.1955 18.8118 23.1874 20.6206 20.6872 20.5402C18.3079 20.4598 17.1385 19.0128 16.4126 16.9226C15.7271 16.9226 14.9609 16.9226 14.235 16.9226C13.5092 16.9226 12.8236 16.9226 12.0574 16.9226C13.3479 21.9069 14.477 21.9471 16.6143 23.5953C13.9931 25.3633 12.3397 27.7353 12.1381 30.9513C13.6705 30.9513 15.0819 30.9513 16.453 30.9513C16.9772 28.4593 18.3483 27.0923 20.1226 26.9713C21.4937 26.8513 22.7438 27.2123 23.7116 27.9763C24.5988 28.6603 24.8407 29.8653 25.1633 30.9913C25.8892 30.9913 26.6151 31.0313 27.3409 30.9913C28.0265 30.9513 28.7523 31.1923 29.4379 30.8703C29.2766 30.2673 29.1556 29.7853 29.0346 29.3033C28.6717 27.9363 28.3088 26.6103 27.1393 25.6853C26.3731 25.0423 25.6876 24.2783 24.9617 23.5553ZM25.0424 16.1186C26.2925 16.1186 27.4619 16.1588 28.591 16.0784C28.954 16.0383 29.5185 16.0784 29.1556 15.1137C28.712 14.0284 28.6314 12.8628 27.8652 11.8177C27.099 10.8128 26.3731 9.9284 25.2843 9.2853C23.9939 8.5216 22.7035 7.8784 21.1308 8.0794C20.2033 8.2 19.1145 7.8383 18.3483 8.1598C15.3642 9.5265 12.7833 11.3353 12.501 15.0333C11.8558 15.7971 12.38 16.0784 13.0253 16.1186C14.1544 16.199 15.2835 16.1588 16.4126 16.1588C16.9369 13.6265 18.7919 12.0588 20.9291 12.1794C23.147 12.2598 24.8004 13.9079 25.0424 16.1186Z" fill="white"/>
</svg>
